{
  "accessors": [
    {
      "bufferView": 2,
      "componentType": 5126,
      "count": 65532,
      "max": [
        0.9607943892478943,
        0.9266417026519775,
        0.043114665895700455
      ],
      "min": [
        -0.9608084559440613,
        -0.9608002305030823,
        -0.05000203847885132
      ],
      "type": "VEC3"
    },
    {
      "bufferView": 2,
      "byteOffset": 786384,
      "componentType": 5126,
      "count": 65532,
      "max": [
        0.8185907602310181,
        0.9480355381965637,
        1.0
      ],
      "min": [
        -0.6349435448646545,
        -0.7492228746414185,
        0.3137636184692383
      ],
      "type": "VEC3"
    },
    {
      "bufferView": 1,
      "componentType": 5126,
      "count": 65532,
      "max": [
        0.9805319905281067,
        0.9632353782653809
      ],
      "min": [
        0.019540483132004738,
        0.01903531700372696
      ],
      "type": "VEC2"
    },
    {
      "bufferView": 0,
      "componentType": 5125,
      "count": 368445,
      "type": "SCALAR"
    },
    {
      "bufferView": 2,
      "byteOffset": 1572768,
      "componentType": 5126,
      "count": 65532,
      "max": [
        0.9607943892478943,
        0.9607853889465332,
        0.046477001160383224
      ],
      "min": [
        -0.9607897400856018,
        -0.9607844352722168,
        -0.049215685576200485
      ],
      "type": "VEC3"
    },
    {
      "bufferView": 2,
      "byteOffset": 2359152,
      "componentType": 5126,
      "count": 65532,
      "max": [
        0.9999873638153076,
        0.682188093662262,
        1.0
      ],
      "min": [
        -0.9479602575302124,
        -0.700648307800293,
        -0.005035643931478262
      ],
      "type": "VEC3"
    },
    {
      "bufferView": 1,
      "byteOffset": 524256,
      "componentType": 5126,
      "count": 65532,
      "max": [
        0.9805319905281067,
        0.9804337620735168
      ],
      "min": [
        0.01942508853971958,
        0.0196005217730999
      ],
      "type": "VEC2"
    },
    {
      "bufferView": 0,
      "byteOffset": 1473780,
      "componentType": 5125,
      "count": 364632,
      "type": "SCALAR"
    },
    {
      "bufferView": 2,
      "byteOffset": 3145536,
      "componentType": 5126,
      "count": 65532,
      "max": [
        0.8458999395370483,
        0.9607892036437988,
        0.05000000074505806
      ],
      "min": [
        -0.9607912302017212,
        -0.9608008861541748,
        -0.04584216699004173
      ],
      "type": "VEC3"
    },
    {
      "bufferView": 2,
      "byteOffset": 3931920,
      "componentType": 5126,
      "count": 65532,
      "max": [
        0.6270690560340881,
        0.5597273707389832,
        1.0
      ],
      "min": [
        -0.793500542640686,
        -0.7484788298606873,
        0.5424450039863586
      ],
      "type": "VEC3"
    },
    {
      "bufferView": 1,
      "byteOffset": 1048512,
      "componentType": 5126,
      "count": 65532,
      "max": [
        0.9230290651321411,
        0.9804007411003113
      ],
      "min": [
        0.01953260600566864,
        0.019603921100497246
      ],
      "type": "VEC2"
    },
    {
      "bufferView": 0,
      "byteOffset": 2932308,
      "componentType": 5125,
      "count": 351237,
      "type": "SCALAR"
    },
    {
      "bufferView": 2,
      "byteOffset": 4718304,
      "componentType": 5126,
      "count": 65532,
      "max": [
        0.5339340567588806,
        0.9607871174812317,
        0.04805569723248482
      ],
      "min": [
        -0.9608002305030823,
        -0.9607884883880615,
        -0.0492195263504982
      ],
      "type": "VEC3"
    },
    {
      "bufferView": 2,
      "byteOffset": 5504688,
      "componentType": 5126,
      "count": 65532,
      "max": [
        0.794850766658783,
        0.9480355381965637,
        1.0
      ],
      "min": [
        -0.6387601494789124,
        -0.7000210285186768,
        0.3137636184692383
      ],
      "type": "VEC3"
    },
    {
      "bufferView": 1,
      "byteOffset": 1572768,
      "componentType": 5126,
      "count": 65532,
      "max": [
        0.7666085362434387,
        0.980392336845398
      ],
      "min": [
        0.019129153341054916,
        0.019607845693826675
      ],
      "type": "VEC2"
    },
    {
      "bufferView": 0,
      "byteOffset": 4337256,
      "componentType": 5125,
      "count": 360114,
      "type": "SCALAR"
    },
    {
      "bufferView": 2,
      "byteOffset": 6291072,
      "componentType": 5126,
      "count": 65532,
      "max": [
        0.6470587849617004,
        0.9607921838760376,
        0.045686282217502594
      ],
      "min": [
        -0.9607921242713928,
        -0.9607979655265808,
        -0.048837173730134964
      ],
      "type": "VEC3"
    },
    {
      "bufferView": 2,
      "byteOffset": 7077456,
      "componentType": 5126,
      "count": 65532,
      "max": [
        0.6364469528198242,
        0.5451990365982056,
        0.9999998807907104
      ],
      "min": [
        -0.5754902362823486,
        -0.7254975438117981,
        0.5487688183784485
      ],
      "type": "VEC3"
    },
    {
      "bufferView": 1,
      "byteOffset": 2097024,
      "componentType": 5126,
      "count": 65532,
      "max": [
        0.8235296010971069,
        0.9807270765304565
      ],
      "min": [
        0.01921439915895462,
        0.019572747871279716
      ],
      "type": "VEC2"
    },
    {
      "bufferView": 0,
      "byteOffset": 5777712,
      "componentType": 5125,
      "count": 344196,
      "type": "SCALAR"
    },
    {
      "bufferView": 2,
      "byteOffset": 7863840,
      "componentType": 5126,
      "count": 25169,
      "max": [
        0.9607934951782227,
        0.9607903361320496,
        0.0496126227080822
      ],
      "min": [
        -0.9607900381088257,
        -0.9607948660850525,
        -0.05000203847885132
      ],
      "type": "VEC3"
    },
    {
      "bufferView": 2,
      "byteOffset": 8165868,
      "componentType": 5126,
      "count": 25169,
      "max": [
        0.9997686147689819,
        0.682188093662262,
        1.0
      ],
      "min": [
        -0.5451715588569641,
        -0.7182969450950623,
        0.020447662100195885
      ],
      "type": "VEC3"
    },
    {
      "bufferView": 1,
      "byteOffset": 2621280,
      "componentType": 5126,
      "count": 25169,
      "max": [
        0.9803934097290039,
        0.9805459380149841
      ],
      "min": [
        0.019482826814055443,
        0.01903531700372696
      ],
      "type": "VEC2"
    },
    {
      "bufferView": 0,
      "byteOffset": 7154496,
      "componentType": 5125,
      "count": 55344,
      "type": "SCALAR"
    }
  ],
  "asset": {
    "extras": {
      "author": "Šimon Ustal (https://sketchfab.com/simonustal)",
      "license": "CC-BY-4.0 (http://creativecommons.org/licenses/by/4.0/)",
      "source": "https://sketchfab.com/3d-models/desert-landscape-220c14d161e44e83be64f30f2034cf4b",
      "title": "Desert Landscape"
    },
    "generator": "Sketchfab-12.68.0",
    "version": "2.0"
  },
  "bufferViews": [
    {
      "buffer": 0,
      "byteLength": 7375872,
      "name": "floatBufferViews",
      "target": 34963
    },
    {
      "buffer": 0,
      "byteLength": 2822632,
      "byteOffset": 7375872,
      "byteStride": 8,
      "name": "floatBufferViews",
      "target": 34962
    },
    {
      "buffer": 0,
      "byteLength": 8467896,
      "byteOffset": 10198504,
      "byteStride": 12,
      "name": "floatBufferViews",
      "target": 34962
    }
  ],
  "buffers": [
    {
      "byteLength": 18666400,
      "uri": "scene.bin"
    }
  ],
  "images": [
    {
      "uri": "textures/Material.001_baseColor.png"
    },
    {
      "uri": "textures/Material.001_metallicRoughness.png"
    }
  ],
  "materials": [
    {
      "doubleSided": true,
      "name": "Material.001",
      "occlusionTexture": {
        "index": 1
      },
      "pbrMetallicRoughness": {
        "baseColorTexture": {
          "index": 0
        },
        "metallicFactor": 0.0321109145188455,
        "metallicRoughnessTexture": {
          "index": 1
        },
        "roughnessFactor": 0.9131675270111693
      }
    }
  ],
  "meshes": [
    {
      "name": "Plane_Material.001_0",
      "primitives": [
        {
          "attributes": {
            "NORMAL": 1,
            "POSITION": 0,
            "TEXCOORD_0": 2
          },
          "indices": 3,
          "material": 0,
          "mode": 4
        }
      ]
    },
    {
      "name": "Plane_Material.001_0",
      "primitives": [
        {
          "attributes": {
            "NORMAL": 5,
            "POSITION": 4,
            "TEXCOORD_0": 6
          },
          "indices": 7,
          "material": 0,
          "mode": 4
        }
      ]
    },
    {
      "name": "Plane_Material.001_0",
      "primitives": [
        {
          "attributes": {
            "NORMAL": 9,
            "POSITION": 8,
            "TEXCOORD_0": 10
          },
          "indices": 11,
          "material": 0,
          "mode": 4
        }
      ]
    },
    {
      "name": "Plane_Material.001_0",
      "primitives": [
        {
          "attributes": {
            "NORMAL": 13,
            "POSITION": 12,
            "TEXCOORD_0": 14
          },
          "indices": 15,
          "material": 0,
          "mode": 4
        }
      ]
    },
    {
      "name": "Plane_Material.001_0",
      "primitives": [
        {
          "attributes": {
            "NORMAL": 17,
            "POSITION": 16,
            "TEXCOORD_0": 18
          },
          "indices": 19,
          "material": 0,
          "mode": 4
        }
      ]
    },
    {
      "name": "Plane_Material.001_0",
      "primitives": [
        {
          "attributes": {
            "NORMAL": 21,
            "POSITION": 20,
            "TEXCOORD_0": 22
          },
          "indices": 23,
          "material": 0,
          "mode": 4
        }
      ]
    }
  ],
  "nodes": [
    {
      "children": [
        1
      ],
      "matrix": [
        1.0,
        0.0,
        0.0,
        0.0,
        0.0,
        2.220446049250313e-16,
        -1.0,
        0.0,
        0.0,
        1.0,
        2.220446049250313e-16,
        0.0,
        0.0,
        0.0,
        0.0,
        1.0
      ],
      "name": "Sketchfab_model"
    },
    {
      "children": [
        2
      ],
      "matrix": [
        0.009999999776482582,
        0.0,
        0.0,
        0.0,
        0.0,
        0.0,
        0.009999999776482582,
        0.0,
        0.0,
        -0.009999999776482582,
        0.0,
        0.0,
        0.0,
        0.0,
        0.0,
        1.0
      ],
      "name": "f0197ac0f27446d2bf6c6b5d4b0099b3.fbx"
    },
    {
      "children": [
        3,
        6,
        8
      ],
      "name": "RootNode"
    },
    {
      "children": [
        4
      ],
      "matrix": [
        -29.08647719990347,
        -5.518906457566863,
        -95.51711910171437,
        0.0,
        56.63930913109449,
        79.46723428563203,
        -21.83912397841966,
        0.0,
        77.11008775993375,
        -60.45246356562044,
        -19.98834696773717,
        0.0,
        407.6245422363281,
        590.38623046875,
        -100.54539489746094,
        1.0
      ],
      "name": "Light"
    },
    {
      "children": [
        5
      ],
      "matrix": [
        1.0,
        0.0,
        0.0,
        0.0,
        0.0,
        2.220446049250313e-16,
        1.0,
        0.0,
        0.0,
        -1.0,
        2.220446049250313e-16,
        0.0,
        0.0,
        0.0,
        0.0,
        1.0
      ],
      "name": "Object_4"
    },
    {
      "name": "Object_5"
    },
    {
      "children": [
        7
      ],
      "matrix": [
        -65.15581009765468,
        -44.527143038140764,
        -61.41704928909654,
        0.0,
        -32.40135466989878,
        89.5395708958271,
        -30.542085476036902,
        0.0,
        68.59207001076176,
        1.2755314797120858e-05,
        -72.76761921184276,
        0.0,
        735.88916015625,
        495.8309326171875,
        692.5791015625,
        1.0
      ],
      "name": "Camera"
    },
    {
      "name": "Object_7"
    },
    {
      "children": [
        9,
        10,
        11,
        12,
        13,
        14
      ],
      "matrix": [
        191.32843017578125,
        0.0,
        0.0,
        0.0,
        0.0,
        -3.117135783121086e-05,
        -191.32843017577872,
        0.0,
        0.0,
        191.32843017577872,
        -3.117135783121086e-05,
        0.0,
        0.0,
        0.0,
        0.0,
        1.0
      ],
      "name": "Plane"
    },
    {
      "mesh": 0,
      "name": "Plane_Material.001_0"
    },
    {
      "mesh": 1,
      "name": "Plane_Material.001_0"
    },
    {
      "mesh": 2,
      "name": "Plane_Material.001_0"
    },
    {
      "mesh": 3,
      "name": "Plane_Material.001_0"
    },
    {
      "mesh": 4,
      "name": "Plane_Material.001_0"
    },
    {
      "mesh": 5,
      "name": "Plane_Material.001_0"
    }
  ],
  "samplers": [
    {
      "magFilter": 9729,
      "minFilter": 9987,
      "wrapS": 10497,
      "wrapT": 10497
    }
  ],
  "scene": 0,
  "scenes": [
    {
      "name": "Sketchfab_Scene",
      "nodes": [
        0
      ]
    }
  ],
  "textures": [
    {
      "sampler": 0,
      "source": 0
    },
    {
      "sampler": 0,
      "source": 1
    }
  ]
}
